<svg width="178" height="38" viewBox="0 0 178 38" fill="none" xmlns="http://www.w3.org/2000/svg">
<path d="M92.4614 8.78252L89.0718 16.3265H91.8607L92.4614 8.78252ZM34.5818 2.36452H31.8359L26.773 17.8465C27.5453 17.6776 29.9051 17.2273 30.4629 17.0021C31.1494 16.7206 31.7072 15.8198 32.5224 13.5679C33.3376 11.3159 34.5389 7.20617 35.1825 5.12314C35.8261 3.0964 35.2683 2.36452 34.5818 2.36452ZM141.674 0.168895C143.133 0.168895 143.819 1.80154 142.403 3.71568C140.987 5.62982 126.485 26.3476 126.013 27.0794C125.542 27.8113 125.327 28.5432 126.185 28.5432H134.981L134.208 31.1892H120.607C119.02 31.1892 118.419 29.7255 119.964 27.5861C121.508 25.3905 136.182 4.67275 136.74 3.82828C137.298 3.0401 137.126 2.64602 136.611 2.64602H128.631L129.317 0.168895H141.674ZM112.498 0.168895C112.498 0.168895 104.604 24.8275 104.003 26.5728C103.402 28.318 104.175 28.5432 104.904 28.5432H110.053L109.28 31.1892H99.884C98.1249 31.1892 97.5242 29.6692 98.4681 26.7416C99.4121 23.8704 107.221 0.168895 107.221 0.168895H112.498ZM97.9533 0.168895L95.9796 31.1892H90.7451L91.7749 18.5784H87.4843L81.1343 31.1892H76.0715C76.0715 31.1892 90.5306 3.209 91.0455 2.19563C91.5603 1.18226 92.6759 0.168895 93.4053 0.168895H97.9533ZM84.009 0.225193L73.9691 31.2455H68.4772L78.7316 0.225193H84.009ZM126.829 0.168895L116.789 31.1892H111.297L121.508 0.168895H126.829ZM75.8998 0.225193L75.1275 2.42082H68.1339C66.3748 2.42082 66.2032 3.43419 65.817 4.50386C65.4309 5.57352 58.9093 25.6157 58.5231 26.6853C58.137 27.755 58.1799 28.5995 59.2954 28.5995H64.7873H66.4177L65.7741 31.2455H54.49C52.4734 31.2455 52.0873 29.5003 52.8167 27.2483C53.5461 24.9964 60.3251 4.33496 60.8829 2.53342C61.4407 0.731877 62.8995 0.225193 64.5299 0.225193H75.8998ZM59.3383 0.225193L58.5231 2.36452H52.216C50.4569 2.36452 49.8562 2.98381 49.2555 4.72905C48.6548 6.47429 46.0805 14.4686 46.0805 14.4686H52.8596L51.9586 16.7206H45.394C45.394 16.7206 42.8626 24.3208 42.219 26.235C41.5754 28.1491 41.7471 28.6558 42.8197 28.6558H48.3116H49.942L49.0839 31.3018H38.0143C36.4697 31.3018 35.4399 30.2884 36.4268 27.2483C37.3707 24.1519 43.3346 5.96761 44.1498 3.49049C44.965 1.06967 46.2521 0.281492 48.14 0.281492L59.3383 0.225193ZM160.681 0.168895L159.866 2.30823H153.559C151.8 2.30823 151.199 2.92751 150.598 4.67275C149.998 6.418 147.466 14.4123 147.466 14.4123H154.245L153.344 16.6643H146.78C146.78 16.6643 144.248 24.2645 143.605 26.1787C142.961 28.0928 143.133 28.5995 144.205 28.5995H149.697H151.328L150.47 31.2455H139.4C137.855 31.2455 136.826 30.2321 137.812 27.192C138.756 24.0956 144.72 5.91131 145.535 3.43419C146.351 1.01337 147.638 0.225193 149.526 0.225193L160.681 0.168895ZM38.9153 0.225193C40.846 0.225193 41.7471 2.13933 40.9319 4.95424C40.1166 7.76915 39.2156 10.3026 37.8856 14.2997C36.5555 18.2969 35.6116 18.7473 33.0801 19.1977C30.5487 19.6481 25.8291 20.4925 25.8291 20.4925L22.2251 31.2455H17.0335L27.5024 0.225193H38.9153ZM24.7565 0.225193L23.9413 2.42082L16.347 2.36452C15.3602 2.36452 14.7595 3.209 14.2446 4.33496C13.6869 5.51722 13.5152 6.418 13.0433 7.88175C12.5284 9.3455 12.5713 10.8656 13.5152 11.8789C14.4592 12.8923 15.6176 14.2997 16.6044 15.4257C18.4494 17.5087 18.9642 18.4658 17.4625 22.9697C16.3041 26.4039 16.9048 24.8838 15.9179 27.755C14.8882 30.6825 13.7727 31.3018 12.0135 31.3018H0L1.02973 28.6558H8.45238C9.78245 28.6558 10.1686 27.755 10.7693 26.235C11.37 24.7149 11.5416 24.2645 12.271 21.9563C13.0004 19.7044 13.2149 18.5784 12.2281 17.3398C11.2412 16.045 9.91117 14.6375 8.45238 12.8923C6.9936 11.2033 7.0365 10.6967 7.7659 8.27584C8.5382 5.85501 8.79563 5.01054 9.56793 2.75861C10.2973 0.506684 11.6703 0.281492 13.0862 0.281492L24.7565 0.225193ZM161.496 28.4869H162.826C164.156 28.4869 164.543 27.5861 165.015 26.2913C165.487 24.9964 171.322 7.43136 171.965 5.29203C172.609 3.0964 172.137 2.58972 171.15 2.58972H167.675L159.222 28.4869H160.896H161.496ZM153.087 31.0766L163.213 0H176.084C177.972 0 178.315 2.53342 177.758 4.33496C177.243 6.1928 171.021 24.9401 170.292 27.192C169.563 29.444 168.49 31.0766 166.688 31.0766H153.087Z" fill="white"/>
<path d="M172.738 37.8888C173.21 37.8888 173.682 37.6636 173.982 37.2132C174.325 36.7628 174.497 36.1998 174.497 35.5806C174.497 34.9613 174.325 34.3983 173.982 33.9479C173.639 33.4975 173.21 33.2723 172.738 33.2723C171.751 33.2723 170.936 34.342 170.936 35.5806C170.936 36.1998 171.107 36.8191 171.45 37.2132C171.837 37.6636 172.266 37.8888 172.738 37.8888ZM171.15 35.5806C171.15 35.0176 171.322 34.5109 171.622 34.1168C171.922 33.7227 172.309 33.4975 172.738 33.4975C173.167 33.4975 173.553 33.7227 173.853 34.1168C174.153 34.5109 174.325 35.0176 174.325 35.5806C174.325 36.7065 173.596 37.6636 172.738 37.6636C172.309 37.6636 171.922 37.4384 171.622 37.0443C171.322 36.6502 171.15 36.0872 171.15 35.5806Z" fill="white"/>
<path d="M172.008 34.3419H172.952C173.424 34.3419 173.553 34.7923 173.553 35.0175C173.553 35.299 173.467 35.5242 173.252 35.5805C173.424 35.6931 173.467 35.7493 173.467 36.1997C173.467 36.5375 173.467 36.6501 173.553 36.7064V36.7627H173.124C173.081 36.6501 173.081 36.5375 173.081 36.256C173.081 35.9182 173.081 35.8056 172.78 35.8056H172.394V36.7627H172.008V34.3419ZM172.866 35.4116C173.081 35.4116 173.167 35.299 173.167 35.0738C173.167 34.9612 173.124 34.736 172.909 34.736H172.437V35.4116H172.866Z" fill="white"/>
</svg>
