<svg width="350" height="386" viewBox="0 0 350 386" fill="none" xmlns="http://www.w3.org/2000/svg">
<path d="M32.1371 248.832V259.451H33.7569C36.2766 259.451 37.8965 256.932 37.8965 254.052C37.8965 251.172 36.2766 248.652 33.7569 248.652H32.1371V248.832ZM32.3171 269.35L32.1371 296.527H20.6184V238.934H33.7569C41.856 238.934 47.6154 245.593 47.6154 254.052C47.6154 260.171 44.7357 265.211 40.2362 267.55H44.9157L66.1533 296.347H52.1149L32.3171 269.35Z" fill="white" stroke="#121414" stroke-width="2" stroke-miterlimit="10"/>
<path d="M31.0563 246.312V257.651H32.6761C35.3758 257.651 36.9956 254.951 36.9956 251.892C36.9956 248.832 35.1958 246.132 32.6761 246.132H31.0563V246.312ZM31.2362 268.27L31.0563 297.246H18.8176V235.693H32.856C41.4951 235.693 47.7944 242.713 47.7944 251.892C47.7944 258.371 44.7347 263.77 40.0552 266.47H45.0947L67.7721 297.246H52.8338L31.2362 268.27Z" fill="white" stroke="#121414" stroke-width="2" stroke-miterlimit="10"/>
<path d="M29.6168 241.633V253.872H31.4166C34.2963 253.872 36.0961 250.992 36.0961 247.753C36.0961 244.513 34.2963 241.633 31.4166 241.633H29.6168ZM29.7968 265.031H29.6168V295.987H16.4783V230.475H31.4166C40.5956 230.655 47.2548 238.034 47.2548 247.753C47.2548 254.592 44.0152 260.351 38.9757 263.231H44.3751L68.4924 295.987H52.4742L29.7968 265.031Z" fill="white" stroke="#121414" stroke-width="2" stroke-miterlimit="10"/>
<path d="M27.816 235.154V248.113H29.6158C32.6755 248.113 34.6552 245.053 34.6552 241.633C34.6552 238.214 32.6755 235.154 29.6158 235.154H27.816ZM27.996 259.991H27.816V292.748H13.7776V223.275H29.6158C39.5147 223.455 46.3539 231.194 46.3539 241.633C46.3539 249.012 42.9343 254.952 37.5349 258.011H43.1143L68.6714 292.748H51.7533L27.996 259.991Z" fill="white" stroke="#121414" stroke-width="2" stroke-miterlimit="10"/>
<path d="M25.8362 226.695V240.374H27.816C30.8757 240.374 33.0354 237.314 33.0354 233.535C33.0354 229.935 30.8757 226.695 27.816 226.695H25.8362ZM26.0162 252.972H25.8362V287.528H11.0779V214.097H27.816C38.2548 214.277 45.634 222.556 45.634 233.535C45.634 241.274 42.0344 247.753 36.275 250.813H42.2144L69.2113 287.528H51.3933L26.0162 252.972Z" fill="white" stroke="#121414" stroke-width="2" stroke-miterlimit="10"/>
<path d="M23.8577 216.975V231.374H26.0174C29.257 231.374 31.5968 228.134 31.5968 224.175C31.5968 220.215 29.437 216.975 26.0174 216.975H23.8577ZM24.0376 244.692H23.8577V281.228H8.37939V203.837H26.0174C36.9962 204.017 44.7353 212.656 44.7353 224.355C44.7353 232.634 40.9557 239.293 34.8364 242.533H41.1357L69.7525 281.228H51.0346L24.0376 244.692Z" fill="white" stroke="#121414" stroke-width="2" stroke-miterlimit="10"/>
<path d="M22.058 205.818V220.936H24.2178C27.6374 220.936 29.9772 217.516 29.9772 213.377C29.9772 209.237 27.6374 205.818 24.2178 205.818H22.058ZM22.418 234.974H22.238V273.31H5.85986V191.779H24.3978C35.9165 191.959 44.0156 201.138 44.0156 213.377C44.0156 222.016 40.056 229.035 33.5767 232.635H40.236L70.4726 273.31H50.6748L22.418 234.974Z" fill="white" stroke="#121414" stroke-width="2" stroke-miterlimit="10"/>
<path d="M20.7988 193.578V209.417H23.1385C26.7381 209.417 29.2578 205.817 29.2578 201.497C29.2578 197.178 26.7381 193.578 23.1385 193.578H20.7988ZM20.9787 224.175H20.7988V264.49H3.70068V179H23.3185C35.3771 179.18 44.0161 188.719 44.0161 201.497C44.0161 210.496 39.8766 218.056 33.2174 221.655H39.8766L71.3731 264.31H50.6754L20.9787 224.175Z" fill="white" stroke="#121414" stroke-width="2" stroke-miterlimit="10"/>
<path d="M19.896 180.439V196.997H22.2357C26.0153 196.997 28.535 193.217 28.535 188.718C28.535 184.218 26.0153 180.439 22.2357 180.439H19.896ZM20.076 212.475H19.896V254.591H2.078V165.141H22.5957C35.1943 165.321 44.1933 175.399 44.1933 188.718C44.1933 198.257 39.8738 205.996 32.8545 209.776H40.0537L72.99 254.411H51.2125L20.076 212.475Z" fill="white" stroke="#121414" stroke-width="2" stroke-miterlimit="10"/>
<path d="M19.7179 166.761V184.039H22.2376C26.1972 184.039 28.8969 180.08 28.8969 175.4C28.8969 170.721 26.1972 166.761 22.2376 166.761H19.7179ZM20.0779 200.058H19.8979V244.153H1V150.743H22.4176C35.5561 150.923 44.9151 161.362 44.9151 175.4C44.9151 185.299 40.4156 193.398 33.0364 197.358H40.5955L74.9717 244.153H52.4742L20.0779 200.058Z" fill="white" stroke="#121414" stroke-width="2" stroke-miterlimit="10"/>
<path d="M20.4378 152.543V170.721H23.1375C27.277 170.721 30.1567 166.581 30.1567 161.722C30.1567 156.862 27.457 152.723 23.1375 152.723H20.4378V152.543ZM20.7978 187.279H20.4378V233.174H1V135.805H23.3175C37.1759 135.985 46.8948 146.963 46.8948 161.542C46.8948 171.801 42.2154 180.26 34.4762 184.579H42.3953L78.2113 233.354H54.454L20.7978 187.279Z" fill="white" stroke="#121414" stroke-width="2" stroke-miterlimit="10"/>
<path d="M22.2376 138.145V157.042H24.9373C29.2568 157.042 32.1365 152.723 32.1365 147.683C32.1365 142.644 29.2568 138.325 24.9373 138.325H22.2376V138.145ZM22.4176 174.32H22.0576V222.195H1.8999V120.687H25.1173C39.5157 120.867 49.5945 132.205 49.5945 147.503C49.5945 158.302 44.7351 167.121 36.636 171.441H44.9151L82.3508 222.195H57.6936L22.4176 174.32Z" fill="white" stroke="#121414" stroke-width="2" stroke-miterlimit="10"/>
<path d="M25.1167 123.748V143.366H27.9964C32.4959 143.366 35.5555 138.866 35.5555 133.647C35.5555 128.427 32.4959 123.928 27.9964 123.928H25.1167V123.748ZM25.4767 161.364H25.1167V211.038H4.05908V105.75H28.1764C43.1147 105.93 53.5535 117.809 53.5535 133.647C53.5535 144.806 48.5141 153.985 40.235 158.484H48.874L87.5697 211.038H62.0126L25.4767 161.364Z" fill="white" stroke="#121414" stroke-width="2" stroke-miterlimit="10"/>
<path d="M29.437 109.529V129.867H32.4967C37.1762 129.867 40.2358 125.188 40.2358 119.788C40.2358 114.389 37.1762 109.709 32.4967 109.709H29.437V109.529ZM29.797 148.585H29.437V200.239H7.47949V90.8115H32.4967C47.9749 90.9915 58.9537 103.23 58.9537 119.788C58.9537 131.307 53.5543 140.846 45.0953 145.525H53.9143L94.2297 200.239H67.7727L29.797 148.585Z" fill="white" stroke="#121414" stroke-width="2" stroke-miterlimit="10"/>
<path d="M35.1969 95.6693V116.727H38.2565C43.116 116.727 46.3556 111.867 46.3556 106.108C46.3556 100.529 43.116 95.6693 38.2565 95.6693H35.1969ZM35.5568 136.165H35.1969V189.619H12.5194V76.2314H38.4365C54.4547 76.4114 65.7934 89.19 65.7934 106.108C65.7934 118.167 60.214 127.886 51.395 132.745H60.574L102.329 189.439H74.9724L35.5568 136.165Z" fill="white" stroke="#121414" stroke-width="2" stroke-miterlimit="10"/>
<path d="M42.7555 82.5315V104.309H45.9952C51.0346 104.309 54.4542 99.2696 54.4542 93.3302C54.4542 87.3909 51.0346 82.3515 45.9952 82.3515H42.7555V82.5315ZM43.1155 124.467H42.7555V179.721H19.3582V62.5537H46.1751C62.7333 62.7337 74.432 76.0522 74.432 93.5102C74.432 105.929 68.6726 116.188 59.4936 121.227H69.0326L112.228 179.901H83.7909L43.1155 124.467Z" fill="white" stroke="#121414" stroke-width="2" stroke-miterlimit="10"/>
<path d="M52.1159 70.2927V92.7902H55.3555C60.5749 92.7902 63.9945 87.5707 63.9945 81.4514C63.9945 75.3321 60.5749 70.1127 55.3555 70.1127H52.1159V70.2927ZM52.4758 113.668H52.1159V170.901H27.8186V49.415H55.5355C72.8135 49.595 84.8722 63.4535 84.8722 81.6314C84.8722 94.41 78.9329 105.029 69.3939 110.248H79.2928L124.108 170.901H94.5911L52.4758 113.668Z" fill="white" stroke="#121414" stroke-width="2" stroke-miterlimit="10"/>
<path d="M63.4532 59.1337V82.3511H66.8728C72.2722 82.3511 75.8718 76.9517 75.8718 70.6524C75.8718 64.3531 72.2722 58.9537 66.8728 58.9537H63.4532V59.1337ZM63.8132 103.949H63.4532V162.982H38.436V37.5361H67.0528C84.8708 37.7161 97.2894 51.9345 97.2894 70.6524C97.2894 83.9709 91.1701 94.7697 81.2712 100.169H91.5301L137.785 162.802H107.368L63.8132 103.949Z" fill="white" stroke="#121414" stroke-width="2" stroke-miterlimit="10"/>
<path d="M77.1319 49.2355V73.1728H80.7315C86.3109 73.1728 89.9105 67.5934 89.9105 61.1141C89.9105 54.6349 86.1309 49.0555 80.7315 49.0555H77.1319V49.2355ZM77.4919 95.3103H77.1319V156.323H51.2148V26.918H80.7315C99.0895 27.0979 112.048 41.6763 112.048 61.1141C112.048 74.7926 105.749 86.1313 95.6698 91.5307H106.289L153.983 156.143H122.307L77.4919 95.3103Z" fill="white" stroke="#121414" stroke-width="2" stroke-miterlimit="10"/>
<path d="M92.9698 40.7764V65.6136H96.5694C102.329 65.6136 106.108 59.8542 106.108 53.195C106.108 46.5357 102.329 40.7764 96.5694 40.7764H92.9698ZM93.3297 88.291H92.9698V151.104H66.3328V17.9189H96.7493C115.647 18.0989 128.966 33.2172 128.966 53.195C128.966 67.2334 122.486 78.9321 112.048 84.6914H122.846L171.981 151.284H139.585L93.3297 88.291Z" fill="white" stroke="#121414" stroke-width="2" stroke-miterlimit="10"/>
<path d="M111.506 34.1154V59.6726H115.286C121.225 59.6726 125.005 53.7332 125.005 46.894C125.005 40.0548 121.045 34.1154 115.286 34.1154H111.506ZM111.866 83.0699H111.506V147.863H83.9692V10.5381H115.466C134.904 10.7181 148.582 26.1963 148.582 46.894C148.582 61.4724 141.923 73.351 131.124 79.2904H142.283L192.857 147.863H159.561L111.866 83.0699Z" fill="white" stroke="#121414" stroke-width="2" stroke-miterlimit="10"/>
<path d="M132.566 29.2562V55.5333H136.346C142.465 55.5333 146.425 49.414 146.425 42.3948C146.425 35.3756 142.465 29.2562 136.346 29.2562H132.566ZM133.106 79.6506H132.746V146.243H104.309V4.95898H136.526C156.504 5.13896 170.722 21.1572 170.722 42.3948C170.722 57.3331 163.883 69.5717 152.724 75.691H164.243L216.257 146.423H182.061L133.106 79.6506Z" fill="white" stroke="#121414" stroke-width="2" stroke-miterlimit="10"/>
<path d="M156.682 26.7379V53.7349H160.642C166.941 53.7349 171.08 47.4356 171.08 40.2364C171.08 33.0372 166.941 26.7379 160.642 26.7379H156.682ZM157.042 78.5721H156.682V147.144H127.525V1.7207H160.822C181.339 1.90068 195.918 18.2788 195.918 40.0564C195.918 55.3547 188.898 68.1332 177.38 74.2525H189.258L242.892 146.964H207.616L157.042 78.5721Z" fill="white" stroke="#121414" stroke-width="2" stroke-miterlimit="10"/>
<path d="M174.682 26.7371V54.454H178.822C185.301 54.454 189.441 47.9747 189.441 40.5955C189.441 33.2164 185.121 26.7371 178.822 26.7371H174.682ZM175.222 80.0111H174.862V150.383H144.806V1H179.002C200.059 1.17998 214.998 18.0981 214.998 40.4156C214.998 56.2538 207.799 69.2123 196.1 75.6916H208.339L263.412 150.383H227.056L175.222 80.0111Z" fill="white" stroke="#121414" stroke-width="2" stroke-miterlimit="10"/>
<path d="M189.619 29.7976V58.2343H193.759C200.418 58.2343 204.738 51.5751 204.738 44.016C204.738 36.2768 200.418 29.7976 193.759 29.7976H189.619ZM190.159 84.5114H189.799V156.863H159.203V3.52051H194.299C215.897 3.70049 231.375 20.9785 231.375 44.016C231.375 60.2141 223.996 73.5326 211.937 80.1919H224.356L280.869 156.863H243.253L190.159 84.5114Z" fill="white" stroke="#121414" stroke-width="2" stroke-miterlimit="10"/>
<path d="M202.039 35.5556V64.7123H206.358C213.017 64.7123 217.517 58.053 217.517 50.1339C217.517 42.2148 213.017 35.5556 206.358 35.5556H202.039ZM202.399 91.7092H202.039V165.861H170.542V8.55859H206.538C228.856 8.73857 244.514 26.5566 244.514 50.1339C244.514 66.6921 236.955 80.5505 224.536 87.2097H237.315L295.268 165.861H257.112L202.399 91.7092Z" fill="white" stroke="#121414" stroke-width="2" stroke-miterlimit="10"/>
<path d="M211.936 43.6534V73.53H216.255C223.094 73.53 227.774 66.6908 227.774 58.5917C227.774 50.4926 223.094 43.6534 216.255 43.6534H211.936ZM212.476 101.247H211.936V177.198H179.719V15.9365H216.615C239.473 16.1165 255.491 34.2945 255.491 58.5917C255.491 75.6898 247.572 89.7282 234.973 96.5675H248.112L307.505 177.198H268.449L212.476 101.247Z" fill="white" stroke="#121414" stroke-width="2" stroke-miterlimit="10"/>
<path d="M219.857 53.5527V84.3293H224.356C231.375 84.3293 236.235 77.31 236.235 69.031C236.235 60.7519 231.555 53.7327 224.356 53.7327H219.857V53.5527ZM220.396 112.586H219.857V190.517H186.74V25.2959H224.536C247.933 25.4759 264.492 44.1938 264.492 69.031C264.492 86.489 256.392 100.887 243.434 107.907H256.932L317.766 190.517H277.63L220.396 112.586Z" fill="white" stroke="#121414" stroke-width="2" stroke-miterlimit="10"/>
<path d="M225.794 65.2531V96.7496H230.474C237.673 96.7496 242.533 89.5504 242.533 81.0913C242.533 72.6323 237.673 65.4331 230.474 65.4331H225.794V65.2531ZM226.334 125.726H225.794V205.457H191.958V36.2764H230.654C254.591 36.4563 271.509 55.5342 271.509 81.0913C271.509 98.9093 263.23 113.668 249.912 121.047H263.77L326.223 205.637H285.188L226.334 125.726Z" fill="white" stroke="#121414" stroke-width="2" stroke-miterlimit="10"/>
<path d="M229.935 78.0306V110.247H234.614C241.993 110.247 247.033 102.868 247.033 94.2288C247.033 85.5898 242.173 78.2106 234.614 78.2106H229.935V78.0306ZM230.475 139.944H229.935V221.654H195.198V48.334H234.794C259.271 48.514 276.549 68.1318 276.549 94.0488C276.549 112.407 268.09 127.525 254.592 134.904H268.63L332.523 221.475H290.408L230.475 139.944Z" fill="white" stroke="#121414" stroke-width="2" stroke-miterlimit="10"/>
<path d="M232.634 91.8892V124.646H237.494C245.053 124.646 250.093 117.086 250.093 108.267C250.093 99.4484 245.053 91.8892 237.494 91.8892H232.634ZM233.174 155.062H232.634V238.573H197.178V61.4727H237.674C262.691 61.6526 280.509 81.8104 280.509 108.267C280.509 126.985 271.87 142.464 258.012 150.023H272.41L337.743 238.573H294.728L233.174 155.062Z" fill="white" stroke="#121414" stroke-width="2" stroke-miterlimit="10"/>
<path d="M233.893 106.106V139.762H238.752C246.492 139.762 251.711 132.023 251.711 122.844C251.711 113.845 246.492 106.106 238.752 106.106H233.893ZM234.433 170.719H233.893V256.209H197.717V74.9697H239.112C264.67 75.3297 282.847 95.6674 282.847 122.844C282.847 141.922 274.028 157.76 259.81 165.5H274.568L341.341 256.029H297.246L234.433 170.719Z" fill="white" stroke="#121414" stroke-width="2" stroke-miterlimit="10"/>
<path d="M234.075 120.506V154.882H239.115C247.034 154.882 252.253 146.963 252.253 137.604C252.253 128.425 247.034 120.326 239.115 120.326H234.075V120.506ZM234.615 186.738H234.075V274.028H196.999V88.8291H239.295C265.572 89.0091 284.109 110.067 284.109 137.784C284.109 157.401 275.11 173.42 260.532 181.519H275.65L343.863 274.208H298.868L234.615 186.738Z" fill="white" stroke="#121414" stroke-width="2" stroke-miterlimit="10"/>
<path d="M233.173 134.905V170.001H238.393C246.492 170.001 251.891 161.902 251.891 152.363C251.891 142.825 246.492 134.725 238.393 134.725H233.173V134.905ZM233.713 202.398H233.173V291.668H195.378V102.329H238.573C265.39 102.689 284.288 123.927 284.288 152.363C284.288 172.341 275.109 188.899 260.17 196.998H275.649L345.301 291.668H299.406L233.713 202.398Z" fill="white" stroke="#121414" stroke-width="2" stroke-miterlimit="10"/>
<path d="M231.733 148.583V184.399H236.952C245.231 184.399 250.811 176.12 250.811 166.401C250.811 156.682 245.231 148.403 236.952 148.403H231.733V148.583ZM232.273 217.695H231.733V308.765H193.037V115.467H237.132C264.489 115.827 283.747 137.604 283.747 166.581C283.747 187.099 274.388 203.837 259.27 212.116H274.928L346.2 308.765H299.225L232.273 217.695Z" fill="white" stroke="#121414" stroke-width="2" stroke-miterlimit="10"/>
<path d="M229.573 161.543V198.079H234.972C243.431 198.079 249.011 189.62 249.011 179.721C249.011 169.822 243.431 161.363 234.972 161.363H229.573V161.543ZM230.113 231.915H229.573V324.965H190.157V127.707H235.152C263.049 128.067 282.847 150.205 282.847 179.901C282.847 200.779 273.308 217.877 257.83 226.336H273.848L346.56 324.965H298.685L230.113 231.915Z" fill="white" stroke="#121414" stroke-width="2" stroke-miterlimit="10"/>
<path d="M227.234 173.241V210.676H232.633C241.272 210.676 247.032 202.037 247.032 191.959C247.032 181.88 241.272 173.241 232.633 173.241H227.234ZM227.774 245.053H227.234V339.902H186.918V138.685H232.813C261.25 139.045 281.408 161.722 281.408 191.779C281.408 213.016 271.689 230.654 255.851 239.113H272.229L346.38 339.722H297.606L227.774 245.053Z" fill="white" stroke="#121414" stroke-width="2" stroke-miterlimit="10"/>
<path d="M224.534 183.32V221.476H230.114C238.933 221.476 244.692 212.657 244.692 202.398C244.692 192.139 238.753 183.32 230.114 183.32H224.534ZM225.074 256.572H224.534V353.221H183.499V148.044H230.474C259.45 148.404 279.968 171.441 279.968 202.218C279.968 223.995 270.069 241.813 253.871 250.632H270.609L346.201 353.221H296.346L225.074 256.572Z" fill="white" stroke="#121414" stroke-width="2" stroke-miterlimit="10"/>
<path d="M222.014 191.599V230.475H227.773C236.772 230.475 242.712 221.476 242.712 211.037C242.712 200.598 236.772 191.599 227.773 191.599H222.014ZM222.554 266.291H222.014V364.92H180.259V155.604H228.133C257.65 155.963 278.708 179.541 278.708 210.857C278.708 232.995 268.449 251.173 252.071 260.172H269.169L346.2 364.74H295.446L222.554 266.291Z" fill="white" stroke="#121414" stroke-width="2" stroke-miterlimit="10"/>
<path d="M219.674 197.539V237.134H225.433C234.612 237.134 240.731 227.955 240.731 217.337C240.731 206.718 234.612 197.539 225.433 197.539H219.674ZM220.394 273.67H219.854V374.099H177.018V161.003H225.793C256.03 161.363 277.267 185.3 277.267 217.337C277.267 239.834 266.828 258.372 250.09 267.551H267.368L346.019 374.099H294.185L220.394 273.67Z" fill="white" stroke="#121414" stroke-width="2" stroke-miterlimit="10"/>
<path d="M217.877 200.777V241.093H223.817C233.175 241.093 239.295 231.734 239.295 220.935C239.295 210.136 233.175 200.777 223.817 200.777H217.877ZM218.597 278.349H218.057V380.757H174.502V163.521H224.176C254.953 163.881 276.551 188.359 276.551 220.935C276.551 243.972 265.932 262.87 249.014 272.049H266.652L346.743 380.577H294.009L218.597 278.349Z" fill="white" stroke="#121414" stroke-width="2" stroke-miterlimit="10"/>
<path d="M216.795 201.137V242.172H222.734C232.273 242.172 238.573 232.633 238.573 221.655C238.573 210.676 232.273 201.137 222.734 201.137H216.795ZM217.335 279.968H216.615V384.176H172.52V163.161H223.094C254.411 163.521 276.548 188.358 276.548 221.655C276.548 245.052 265.75 264.31 248.471 273.849H266.469L348 384.356H294.366L217.335 279.968Z" fill="white" stroke="#121414" stroke-width="2" stroke-miterlimit="10"/>
</svg>
