<svg width="108" height="68" viewBox="0 0 108 68" fill="none" xmlns="http://www.w3.org/2000/svg">
<path d="M10.7127 0.122681H8.12488V7.85973H10.7127V0.122681Z" fill="white"/>
<path d="M22.6888 0.122681L21.3046 2.7017L19.9805 0.122681H11.254V2.33326H13.4808V7.85973H16.0686V2.33326H18.2954V2.14905L19.9805 5.03509V7.85973H22.5684V5.03509L25.5173 0.122681H22.6888Z" fill="white"/>
<path d="M4.09243 5.71071C3.18969 5.71071 2.58786 4.97384 2.58786 3.99136C2.58786 3.07027 3.18969 2.272 4.09243 2.272C4.69426 2.272 5.17572 2.64044 5.41645 3.19308L7.52285 1.96498C6.86084 0.798271 5.65718 0 4.03225 0C1.7453 0 0 1.78076 0 3.99136C0 6.26336 1.7453 7.98271 4.03225 7.98271C5.65718 7.98271 6.92102 7.12304 7.58303 5.89493L5.41645 4.66682C5.2359 5.28087 4.69426 5.71071 4.09243 5.71071Z" fill="white"/>
<path d="M104.417 18.0534C104.357 18.1148 104.297 18.7289 103.635 19.7114C102.792 21.0623 100.806 23.3957 98.2181 26.0975C93.8849 30.5801 88.3481 34.5101 85.8806 34.5101C84.8575 34.5101 84.376 33.8346 84.376 32.9135C84.376 32.1767 84.6168 31.3784 84.9177 30.8872C85.3991 31.01 85.8806 31.1328 86.3019 31.1328C86.9639 31.1328 87.5657 30.9486 88.2277 30.6415C89.973 29.7819 92.5609 27.2642 94.7275 24.501C96.8339 21.7378 98.519 18.8517 98.519 16.7025C98.519 15.0446 97.3153 13.9393 95.8709 13.9393C92.1998 13.9393 86.5426 20.1412 82.8715 25.0536C81.4271 26.8958 79.1401 29.2292 77.1541 30.9486C74.9875 32.8521 73.6033 33.6504 72.7608 33.6504C72.3997 33.6504 72.2793 33.3434 72.2793 32.9135C72.2793 32.4837 72.4598 31.9925 72.6404 31.6854C74.6264 29.7205 80.0429 24.3168 83.4733 19.8956C87.0843 15.1674 89.4314 10.562 89.4314 8.53558C89.4314 6.87764 88.5888 5.64953 87.0843 5.64953C86.3019 5.64953 85.5797 5.89515 85.038 6.26358C82.4502 7.98294 78.6587 11.9743 75.7699 16.0885C73.0015 20.0184 69.4507 26.8344 68.3072 30.8872C64.8166 34.2031 59.0993 38.1944 58.2567 38.1944C58.016 38.1944 57.7151 38.0102 57.7151 37.6418C57.7151 35.9838 62.7102 28.5538 65.1777 25.7905C65.1777 26.466 65.5388 26.9572 66.2008 26.9572C67.1036 26.9572 68.3674 25.2379 69.4507 23.3343C70.2933 21.922 70.8951 20.6939 70.8951 19.5886C70.8951 18.4833 69.9322 17.685 68.9692 17.685C67.4647 17.685 66.0805 18.6675 63.8537 20.9395C60.6038 24.2554 56.3309 30.5187 54.405 34.1417C51.1551 38.1944 47.7247 42.6156 45.6183 45.4403C44.1138 47.4052 43.0907 48.879 42.9703 48.879C42.6092 48.879 43.3916 46.914 45.7989 43.0454C47.0025 41.1419 48.9284 38.1944 50.9746 35.3698C52.6597 32.9749 54.3448 30.7644 55.4281 29.4134C56.2105 28.4924 56.9327 28.0011 56.9327 27.5099C56.9327 27.1414 56.391 26.3432 55.9096 25.7291C55.4281 25.0536 54.8865 24.194 54.405 24.194C53.6226 24.194 51.9375 25.7905 49.7108 27.8169C47.2433 29.9661 44.6554 32.7907 44.2943 32.7907C43.7527 32.7907 46.5812 29.4134 48.8682 26.7116C51.3357 23.7641 52.7199 22.7816 52.7199 22.0448C52.7199 21.4921 52.2384 20.9395 51.5764 20.3254C50.794 19.5886 50.0117 19.2201 49.5302 19.2201C48.8682 19.2201 47.1229 22.3518 41.3453 27.9397C32.8596 35.9838 23.0498 43.5981 19.4388 43.5981C18.4759 43.5981 17.6935 43.1068 17.6935 41.5717C17.6935 37.7032 22.9896 26.8344 28.3459 19.5886C32.2578 14.3077 41.3454 5.09688 46.0998 5.09688C47.3636 5.09688 47.9655 5.71093 47.9655 6.4478C47.9655 8.35137 44.8961 13.141 41.4055 17.4394C36.8316 23.2115 32.5587 27.3256 31.8967 27.3256C31.4754 27.3256 32.7994 24.6852 36.4104 20.3868C37.4335 19.0973 38.5168 17.8692 39.1186 17.2552C39.5399 16.8253 39.6602 16.6411 39.6602 16.3955C39.6602 15.8428 38.9982 15.4744 38.0353 15.4744C37.0122 15.4744 36.1094 15.8428 35.2669 16.5183C34.2438 17.3166 26.7811 25.2379 26.7811 29.9047C26.7811 31.8082 27.8644 32.9135 29.4893 32.9135C30.8134 32.9135 32.3179 32.1153 34.7854 30.0889C37.0724 28.1853 40.1417 25.2379 43.6925 20.8781C48.5071 14.9832 52.5995 8.7198 52.5995 5.03547C52.5995 2.76347 50.794 0.24585 47.7849 0.24585C43.3916 0.24585 35.7484 3.62315 27.3829 13.755C17.6333 25.5449 12.9391 37.826 12.9391 42.9226C12.9391 45.6859 14.5038 48.3877 17.9343 48.3877C23.5313 48.3877 34.2438 39.4225 36.6511 37.0277C35.4474 39.0541 34.8456 40.405 34.8456 41.5103C34.8456 43.4139 36.7113 44.642 37.6742 44.642C38.1557 44.642 39.7204 42.37 40.8037 40.9577C42.6694 38.5628 44.4147 36.0452 44.7758 36.4137C45.0165 36.6593 44.535 37.5804 42.7897 40.3436C41.3454 42.6156 37.4335 49.5544 35.3271 54.8353C33.0401 60.6074 31.7763 64.7216 31.7763 65.7041C31.7763 66.6251 33.1605 67.7304 34.6049 67.7304C35.8085 67.7304 35.8085 65.7655 36.4104 64.5988C40.8639 55.2651 49.7108 43.5367 53.6226 38.8085C53.6828 40.8963 54.8263 42.2472 56.3309 42.2472C59.0993 42.2472 65.0574 37.826 67.9461 35.3698C67.9461 37.2733 68.7887 38.3786 70.2331 38.3786C73.1218 38.3786 77.8763 34.1417 80.5243 31.0714C80.4641 31.4398 80.2836 32.2995 80.2836 33.4662C80.2836 37.2119 82.2094 38.6857 84.9177 38.6857C88.9499 38.6857 96.5329 33.8346 101.889 28.3081C105.681 24.3782 107.065 22.536 107.065 20.4482C107.065 18.9131 105.921 17.9306 104.838 17.9306C104.597 17.9306 104.477 17.992 104.417 18.0534ZM94.0655 19.3429C95.0284 20.3254 87.8666 28.4309 86.001 27.7555C87.4453 25.4221 89.1305 23.2729 90.635 21.7992C92.3803 20.0184 93.8247 19.0973 94.0655 19.3429ZM84.9779 11.9129C85.339 12.2813 84.0149 14.3077 82.0891 16.8253C79.6216 20.0798 76.131 24.1326 73.7839 26.2204C74.9273 23.8255 77.0939 20.6325 78.9596 18.1762C81.7882 14.3691 84.4964 11.4216 84.9779 11.9129Z" fill="white"/>
</svg>
