<svg shape-rendering="geometricPrecision" width="36" height="36" viewBox="0 0 36 36"  xmlns="http://www.w3.org/2000/svg">
<path fill-rule="evenodd" clip-rule="evenodd" d="M35.4182 0.333252H0.307129V35.4444H35.4182V0.333252ZM13.6868 7.52515H22.4141C25.7278 7.52515 28.4141 10.2114 28.4141 13.5252V22.2524C28.4141 25.5661 25.7278 28.2524 22.4141 28.2524H13.6868C10.3731 28.2524 7.68684 25.5661 7.68684 22.2524V13.5251C7.68684 10.2114 10.3731 7.52515 13.6868 7.52515ZM3.68684 13.5251C3.68684 8.0023 8.164 3.52515 13.6868 3.52515H22.4141C27.937 3.52515 32.4141 8.0023 32.4141 13.5252V22.2524C32.4141 27.7753 27.937 32.2524 22.4141 32.2524H13.6868C8.16399 32.2524 3.68684 27.7753 3.68684 22.2524V13.5251ZM18.0506 21.0706C19.8078 21.0706 21.2324 19.6461 21.2324 17.8888C21.2324 16.1315 19.8078 14.707 18.0506 14.707C16.2933 14.707 14.8688 16.1315 14.8688 17.8888C14.8688 19.6461 16.2933 21.0706 18.0506 21.0706ZM18.0506 25.0706C22.017 25.0706 25.2324 21.8552 25.2324 17.8888C25.2324 13.9224 22.017 10.707 18.0506 10.707C14.0842 10.707 10.8688 13.9224 10.8688 17.8888C10.8688 21.8552 14.0842 25.0706 18.0506 25.0706ZM24.8308 12.9039C25.8224 12.9039 26.6263 12.1 26.6263 11.1084C26.6263 10.1168 25.8224 9.31299 24.8308 9.31299C23.8392 9.31299 23.0354 10.1168 23.0354 11.1084C23.0354 12.1 23.8392 12.9039 24.8308 12.9039Z" />
</svg>
