<svg shape-rendering="geometricPrecision" width="35" height="35" viewBox="0 0 35 35" xmlns="http://www.w3.org/2000/svg">
<path fill-rule="evenodd" clip-rule="evenodd" d="M35 0H0C0 0 1.59923e-05 2.32181 1.59923e-05 12.1277V22.8723C1.59923e-05 32.6782 3.82424e-05 35 3.82424e-05 35H35C35 35 35 32.6782 35 22.8723V12.0289C35 2.22301 35 0 35 0ZM29.4313 24.9718H26.7814C25.7781 24.9718 25.4694 24.2061 23.6685 22.4524C22.0992 20.9951 21.4046 20.7975 21.0187 20.7975C20.4784 20.7975 20.3241 20.9457 20.3241 21.662V23.9591C20.3241 24.5766 20.1182 24.9471 18.4203 24.9471C15.6161 24.9471 12.5032 23.3169 10.3164 20.2788C7.02338 15.8327 6.12295 12.4982 6.12295 11.8066C6.12295 11.4361 6.27731 11.0903 7.02338 11.0903H9.67322C10.3421 11.0903 10.5994 11.3867 10.8567 12.0783C12.1687 15.7092 14.3555 18.8956 15.2559 18.8956C15.5904 18.8956 15.7447 18.7474 15.7447 17.9323V14.1778C15.6418 12.4488 14.6899 12.3006 14.6899 11.6831C14.6899 11.3867 14.9472 11.0903 15.3588 11.0903H19.5265C20.0925 11.0903 20.2983 11.3867 20.2983 12.0289V17.0925C20.2983 17.6359 20.5556 17.8335 20.71 17.8335C21.0444 17.8335 21.3274 17.6359 21.9448 17.043C23.8486 14.9929 25.2121 11.8313 25.2121 11.8313C25.3922 11.4608 25.7009 11.115 26.3698 11.115H29.0196C29.8172 11.115 29.9973 11.5102 29.8172 12.0536C29.4827 13.5356 26.2412 17.9323 26.2412 17.9323C25.9582 18.3769 25.8553 18.5745 26.2412 19.0685C26.5242 19.439 27.4503 20.2047 28.0678 20.8963C29.1997 22.1313 30.0744 23.1687 30.306 23.885C30.5632 24.6013 30.1773 24.9718 29.4313 24.9718Z"/>
</svg>
