<svg width="36" height="36" viewBox="0 0 36 36" fill="none" xmlns="http://www.w3.org/2000/svg">
<path fill-rule="evenodd" clip-rule="evenodd" d="M36 0.333252H0.888916V35.4444H36V0.333252ZM20.6243 12.2053L6.47713 17.7228L6.47573 17.723C3.98628 18.6424 5.44353 19.5044 5.44353 19.5044C5.44353 19.5044 7.56867 20.1941 9.39006 20.7113C11.2115 21.2285 12.1831 20.6538 12.1831 20.6538L20.7442 15.1938C23.78 13.2396 23.0514 14.8488 22.3228 15.5385C20.7444 17.0328 18.1334 19.3892 15.9475 21.2859C14.9761 22.0904 15.4617 22.7803 15.8868 23.125C17.1226 24.1147 20.0328 25.9146 21.3551 26.7324C21.722 26.9593 21.9666 27.1106 22.0194 27.148C22.3228 27.378 24.0211 28.4124 25.055 28.1826C26.089 27.9527 26.2105 26.6308 26.2105 26.6308L27.7283 17.6076C27.8621 16.769 27.9959 15.9477 28.1208 15.1811C28.4494 13.1634 28.7165 11.5239 28.7605 10.9409C28.9427 8.98698 26.7569 9.79153 26.7569 9.79153C26.7569 9.79153 22.0208 11.6306 20.6243 12.2053Z" fill="white"/>
</svg>
